<?xml version="1.0" standalone="no"?>
<!DOCTYPE svg PUBLIC "-//W3C//DTD SVG 20010904//EN"
 "http://www.w3.org/TR/2001/REC-SVG-20010904/DTD/svg10.dtd">
<svg version="1.0" xmlns="http://www.w3.org/2000/svg"
 width="1700.000000pt" height="1700.000000pt" viewBox="0 0 1700.000000 1700.000000"
 preserveAspectRatio="xMidYMid meet">
<metadata>
Created by potrace 1.11, written by Peter Selinger 2001-2013
</metadata>
<g transform="translate(0.000000,1700.000000) scale(0.100000,-0.100000)"
fill="#000000" stroke="none">
<path d="M3580 13796 c0 -3 -277 -1114 -615 -2468 -450 -1799 -613 -2463 -604
-2469 12 -7 94 -8 1334 -14 942 -5 7360 -7 7399 -2 34 3 16 -54 176 572 236
921 311 1218 307 1221 -2 3 -45 -9 -95 -26 -119 -40 -192 -49 -342 -45 -138 3
-202 17 -323 70 -121 52 -184 93 -275 180 -138 131 -240 308 -276 481 -18 84
-18 292 -1 389 28 160 128 340 259 470 178 175 385 263 636 271 262 8 491 -87
694 -287 50 -49 91 -87 92 -86 0 1 15 56 31 122 17 66 78 307 136 535 59 228
144 564 191 747 l84 332 -131 3 c-255 6 -8677 10 -8677 4z"/>
<path d="M13471 13307 c-17 -67 -58 -228 -91 -357 -126 -490 -386 -1505 -755
-2950 -103 -404 -211 -827 -240 -940 -29 -113 -51 -208 -48 -213 11 -18 307
27 492 74 309 79 634 242 911 457 96 75 281 255 362 352 307 371 507 837 562
1317 15 128 13 427 -4 568 -40 343 -165 702 -348 999 -53 87 -173 253 -230
318 -115 132 -317 315 -469 424 -120 86 -106 91 -142 -49z"/>
<path d="M2270 8346 c0 -3 -277 -1112 -615 -2465 -338 -1352 -615 -2463 -615
-2468 0 -6 6 -11 13 -12 26 -6 8677 -12 8677 -6 0 6 56 224 260 1020 54 209
164 639 245 955 81 316 162 634 180 705 19 72 58 227 89 345 30 118 111 436
180 705 69 270 166 648 216 842 49 194 90 356 90 361 0 5 -6 10 -12 11 -25 5
-8708 12 -8708 7z"/>
<path d="M12228 8343 c-26 -4 -34 -16 -42 -60 -2 -10 -38 -148 -79 -308 -41
-159 -101 -391 -132 -515 -32 -124 -113 -441 -180 -705 -68 -264 -160 -624
-205 -800 -45 -176 -94 -369 -110 -430 -16 -60 -70 -272 -120 -470 -51 -198
-119 -463 -151 -590 -200 -779 -271 -1066 -265 -1073 15 -14 2606 -2 2766 13
25 3 72 7 105 10 32 3 75 10 95 15 19 5 51 11 70 14 121 18 432 127 591 206
137 69 378 224 441 283 7 7 38 33 68 58 147 123 341 344 452 514 169 258 298
570 361 875 39 183 45 268 43 535 -3 267 -21 391 -90 631 -133 461 -418 911
-761 1199 -33 28 -69 58 -80 69 -11 10 -80 58 -153 106 -282 188 -596 321
-900 380 -227 45 -301 48 -1017 47 -374 0 -692 -2 -707 -4z"/>
</g>
</svg>
